<svg width="24" height="24" viewBox="0 0 24 24" fill="none" xmlns="http://www.w3.org/2000/svg">
<path fill-rule="evenodd" clip-rule="evenodd" d="M12.0108 24C18.6005 24 24 18.6005 24 12.0108C24 5.39925 18.6005 0 12.0108 0C5.39925 0 0 5.39925 0 12.0108C0 18.6005 5.39925 24 12.0108 24Z" fill="#1EBEF0"/>
<path fill-rule="evenodd" clip-rule="evenodd" d="M12.9673 6.44094C12.5419 6.73865 12.2233 7.16375 11.9893 7.63138L11.8831 7.90785C11.8194 8.09896 11.7766 8.29049 11.7553 8.48165C11.7341 8.58782 11.7341 8.67313 11.7129 8.75811V8.92804L11.7341 9.20451L11.7766 9.56591H11.7553H11.6279H11.5429C10.5012 9.54468 9.48101 9.31068 8.5879 8.9068L8.05662 8.65194C7.95045 8.6091 7.86547 8.5454 7.75892 8.48169C7.16389 8.14152 6.63261 7.69513 6.16461 7.20632C5.86728 6.88738 5.59081 6.54721 5.35686 6.1858C5.10195 6.67504 4.95298 7.24879 4.95298 7.84419C4.95298 8.05658 4.97422 8.2693 5.01669 8.48169C5.01669 8.58786 5.03792 8.67318 5.05953 8.75816C5.25069 9.39566 5.59081 9.96983 6.05844 10.3949L6.29244 10.6077L5.99473 10.5436C5.61209 10.4374 5.22945 10.31 4.86804 10.1609C4.91051 10.9263 5.20822 11.6278 5.67579 12.1807C6.12214 12.7117 6.71754 13.1159 7.39751 13.3071L6.611 13.3495L5.95222 13.3283C6.44108 14.5191 7.56776 15.3906 8.90689 15.4968C7.67398 16.4107 6.14337 16.9212 4.50659 16.9212C5.71826 17.6653 7.10019 18.1325 8.60914 18.2174H9.58719C14.2423 17.9625 17.9202 14.1148 17.9202 9.39561V8.94927C18.0901 8.80063 18.26 8.65194 18.4306 8.48169C18.8341 8.12029 19.1959 7.69513 19.4933 7.24879C19.004 7.56772 18.4306 7.73765 17.7928 7.73765H17.7716C18.3449 7.35501 18.7917 6.78121 19.0253 6.1221C18.5793 6.3561 18.0689 6.52597 17.5584 6.67504L17.4947 6.69627L17.1125 6.78121C16.5596 6.1858 15.773 5.80316 14.9015 5.80316H14.8803H14.8378C14.6042 5.80316 14.3699 5.8244 14.1362 5.86724C13.7964 5.95218 13.4559 6.10086 13.1798 6.27111L12.9673 6.44094Z" fill="white"/>
</svg>
