<svg width="24" height="24" viewBox="0 0 24 24" fill="none" xmlns="http://www.w3.org/2000/svg">
<path fill-rule="evenodd" clip-rule="evenodd" d="M12.0108 24C18.6005 24 24 18.6005 24 12.0108C24 5.39925 18.6005 0 12.0108 0C5.39925 0 0 5.39925 0 12.0108C0 18.6005 5.39925 24 12.0108 24Z" fill="#FF0000"/>
<path d="M19.6655 8.71762C19.4814 8.04157 18.9394 7.50909 18.251 7.32842C17.0034 7 12 7 12 7C12 7 6.99662 7 5.74903 7.32842C5.06058 7.50909 4.51839 8.04157 4.33446 8.71762C4 9.94321 4 12.5 4 12.5C4 12.5 4 15.0568 4.33429 16.2824C4.51822 16.9584 5.06041 17.4909 5.74885 17.6716C6.99662 18 12 18 12 18C12 18 17.0034 18 18.2511 17.6716C18.9396 17.4907 19.4816 16.9584 19.6657 16.2824C20 15.0568 20 12.5 20 12.5C20 12.5 20 9.94321 19.6655 8.71762Z" fill="white"/>
<path d="M10 10V15L15 12.5002L10 10Z" fill="#FF0000"/>
</svg>
